<?xml version="1.0" encoding="UTF-8" standalone="no"?>
<!-- Generator: Adobe Illustrator 17.0.1, SVG Export Plug-In . SVG Version: 6.00 Build 0)  -->

<svg
   xmlns:dc="http://purl.org/dc/elements/1.1/"
   xmlns:cc="http://creativecommons.org/ns#"
   xmlns:rdf="http://www.w3.org/1999/02/22-rdf-syntax-ns#"
   xmlns:svg="http://www.w3.org/2000/svg"
   xmlns="http://www.w3.org/2000/svg"
   xmlns:sodipodi="http://sodipodi.sourceforge.net/DTD/sodipodi-0.dtd"
   xmlns:inkscape="http://www.inkscape.org/namespaces/inkscape"
   version="1.1"
   id="Layer_1"
   x="0px"
   y="0px"
   width="64px"
   height="64px"
   viewBox="0 0 64 64"
   style="enable-background:new 0 0 64 64;"
   xml:space="preserve"
   sodipodi:docname="icon-m-blur.svg"
   inkscape:version="0.92.3 (2405546, 2018-03-11)"><metadata
   id="metadata15"><rdf:RDF><cc:Work
       rdf:about=""><dc:format>image/svg+xml</dc:format><dc:type
         rdf:resource="http://purl.org/dc/dcmitype/StillImage" /></cc:Work></rdf:RDF></metadata><defs
   id="defs13" /><sodipodi:namedview
   pagecolor="#ffffff"
   bordercolor="#666666"
   borderopacity="1"
   objecttolerance="10"
   gridtolerance="10"
   guidetolerance="10"
   inkscape:pageopacity="0"
   inkscape:pageshadow="2"
   inkscape:window-width="1920"
   inkscape:window-height="1055"
   id="namedview11"
   showgrid="false"
   inkscape:zoom="5.2149125"
   inkscape:cx="29.5852"
   inkscape:cy="23.690758"
   inkscape:window-x="1920"
   inkscape:window-y="0"
   inkscape:window-maximized="1"
   inkscape:current-layer="Layer_1" />
<g
   id="icon-m-tabs_2_">
	<g
   style="opacity:0;"
   id="g5">
		<rect
   id="icon-m-tabs_1_"
   x="0.5"
   y="0.5"
   style="fill:#FFFFFF;"
   width="64"
   height="64.002" />
		<path
   style="fill:#004C4C;"
   d="M65,65.002H0V0h65V65.002z M1,64.002h63V1H1V64.002z"
   id="path3" />
	</g>
	<path
   style="fill:#FFFFFF;"
   d="M48.5,53.452h-32c-2.731,0-4.952-2.222-4.952-4.952v-32c0-2.731,2.221-4.952,4.952-4.952h32   c2.73,0,4.952,2.221,4.952,4.952v32C53.452,51.23,51.23,53.452,48.5,53.452z M16.5,13.452c-1.681,0-3.048,1.367-3.048,3.048v32   c0,1.681,1.367,3.048,3.048,3.048h32c1.681,0,3.048-1.367,3.048-3.048v-32c0-1.681-1.367-3.048-3.048-3.048H16.5z"
   id="path7" />
</g>
<path
   inkscape:connector-curvature="0"
   d="m 21.789919,34.286014 c -0.981757,0 -1.785013,0.803256 -1.785013,1.785014 0,0.981757 0.803256,1.785012 1.785013,1.785012 0.981757,0 1.785013,-0.803255 1.785013,-1.785012 0,-0.981758 -0.803256,-1.785014 -1.785013,-1.785014 z m 0,7.140054 c -0.981757,0 -1.785013,0.803256 -1.785013,1.785013 0,0.981758 0.803256,1.785013 1.785013,1.785013 0.981757,0 1.785013,-0.803255 1.785013,-1.785013 0,-0.981757 -0.803256,-1.785013 -1.785013,-1.785013 z m 0,-14.280107 c -0.981757,0 -1.785013,0.803256 -1.785013,1.785013 0,0.981758 0.803256,1.785014 1.785013,1.785014 0.981757,0 1.785013,-0.803256 1.785013,-1.785014 0,-0.981758 -0.803256,-1.785013 -1.785013,-1.785013 z m -5.35504,0.892507 c -0.499804,0 -0.892507,0.392703 -0.892507,0.892506 0,0.499804 0.392704,0.892506 0.892507,0.892506 0.499803,0 0.892506,-0.392703 0.892506,-0.892506 0,-0.499803 -0.392703,-0.892506 -0.892506,-0.892506 z m 5.35504,-8.032561 c -0.981757,0 -1.785013,0.803256 -1.785013,1.785014 0,0.981757 0.803256,1.785013 1.785013,1.785013 0.981757,0 1.785013,-0.803256 1.785013,-1.785013 0,-0.981758 -0.803256,-1.785014 -1.785013,-1.785014 z m 26.775201,9.817574 c 0.499804,0 0.892507,-0.392703 0.892507,-0.892507 0,-0.499803 -0.392702,-0.892506 -0.892507,-0.892506 -0.499803,0 -0.892507,0.392703 -0.892507,0.892506 0,0.499804 0.392703,0.892507 0.892507,0.892507 z M 36.070026,23.575934 c 0.981757,0 1.785014,-0.803256 1.785014,-1.785013 0,-0.981758 -0.803257,-1.785014 -1.785014,-1.785014 -0.981757,0 -1.785013,0.803256 -1.785013,1.785014 0,0.981757 0.803256,1.785013 1.785013,1.785013 z m 0,-6.247547 c 0.499804,0 0.892507,-0.392703 0.892507,-0.892507 0,-0.499805 -0.392702,-0.892508 -0.892507,-0.892508 -0.499804,0 -0.892507,0.392703 -0.892507,0.892508 0,0.499804 0.392703,0.892507 0.892507,0.892507 z M 16.434879,35.178521 c -0.499804,0 -0.892507,0.392703 -0.892507,0.892507 0,0.499804 0.392704,0.892507 0.892507,0.892507 0.499803,0 0.892506,-0.392703 0.892506,-0.892507 0,-0.499804 -0.392703,-0.892507 -0.892506,-0.892507 z m 12.495094,12.495094 c -0.499804,0 -0.892507,0.392703 -0.892507,0.892507 0,0.499803 0.392703,0.892506 0.892507,0.892506 0.499803,0 0.892506,-0.392703 0.892506,-0.892506 0,-0.499804 -0.392703,-0.892507 -0.892506,-0.892507 z m 0,-30.345228 c 0.499803,0 0.892506,-0.392703 0.892506,-0.892507 0,-0.499805 -0.392703,-0.892508 -0.892506,-0.892508 -0.499804,0 -0.892507,0.392703 -0.892507,0.892508 0,0.499804 0.392703,0.892507 0.892507,0.892507 z m 0,6.247547 c 0.981757,0 1.785013,-0.803256 1.785013,-1.785013 0,-0.981758 -0.803256,-1.785014 -1.785013,-1.785014 -0.981758,0 -1.785014,0.803256 -1.785014,1.785014 0,0.981757 0.803256,1.785013 1.785014,1.785013 z m 0,9.817574 c -1.481562,0 -2.677521,1.195959 -2.677521,2.67752 0,1.481561 1.195959,2.67752 2.677521,2.67752 1.481561,0 2.67752,-1.195959 2.67752,-2.67752 0,-1.481561 -1.195959,-2.67752 -2.67752,-2.67752 z m 14.280107,0.892506 c -0.981758,0 -1.785014,0.803256 -1.785014,1.785014 0,0.981757 0.803256,1.785012 1.785014,1.785012 0.981757,0 1.785013,-0.803255 1.785013,-1.785012 0,-0.981758 -0.803256,-1.785014 -1.785013,-1.785014 z m 0,7.140054 c -0.981758,0 -1.785014,0.803256 -1.785014,1.785013 0,0.981758 0.803256,1.785013 1.785014,1.785013 0.981757,0 1.785013,-0.803255 1.785013,-1.785013 0,-0.981757 -0.803256,-1.785013 -1.785013,-1.785013 z m 0,-14.280107 c -0.981758,0 -1.785014,0.803256 -1.785014,1.785013 0,0.981758 0.803256,1.785014 1.785014,1.785014 0.981757,0 1.785013,-0.803256 1.785013,-1.785014 0,-0.981758 -0.803256,-1.785013 -1.785013,-1.785013 z m 0,-7.140054 c -0.981758,0 -1.785014,0.803256 -1.785014,1.785014 0,0.981757 0.803256,1.785013 1.785014,1.785013 0.981757,0 1.785013,-0.803256 1.785013,-1.785013 0,-0.981758 -0.803256,-1.785014 -1.785013,-1.785014 z m 5.35504,15.172613 c -0.499803,0 -0.892507,0.392703 -0.892507,0.892508 0,0.499803 0.392703,0.892507 0.892507,0.892507 0.499804,0 0.892507,-0.392703 0.892507,-0.892507 0,-0.499804 -0.392702,-0.892508 -0.892507,-0.892508 z m -12.495094,6.247548 c -0.981757,0 -1.785013,0.803256 -1.785013,1.785013 0,0.981758 0.803256,1.785013 1.785013,1.785013 0.981757,0 1.785014,-0.803255 1.785014,-1.785013 0,-0.981757 -0.803257,-1.785013 -1.785014,-1.785013 z m 0,6.247547 c -0.499804,0 -0.892507,0.392702 -0.892507,0.892507 0,0.499803 0.392703,0.892505 0.892507,0.892505 0.499804,0 0.892507,-0.392702 0.892507,-0.892505 0,-0.499804 -0.392702,-0.892507 -0.892507,-0.892507 z M 28.929973,26.253454 c -1.481562,0 -2.677521,1.195959 -2.677521,2.67752 0,1.481561 1.195959,2.67752 2.677521,2.67752 1.481561,0 2.67752,-1.195959 2.67752,-2.67752 0,-1.481561 -1.195959,-2.67752 -2.67752,-2.67752 z m 0,15.172614 c -0.981758,0 -1.785014,0.803256 -1.785014,1.785013 0,0.981758 0.803256,1.785014 1.785014,1.785014 0.981757,0 1.785013,-0.803256 1.785013,-1.785014 0,-0.981757 -0.803256,-1.785013 -1.785013,-1.785013 z m 7.140053,-8.03256 c -1.481561,0 -2.67752,1.195959 -2.67752,2.67752 0,1.481561 1.195959,2.67752 2.67752,2.67752 1.481561,0 2.67752,-1.195959 2.67752,-2.67752 0,-1.481561 -1.195959,-2.67752 -2.67752,-2.67752 z m 0,-7.140054 c -1.481561,0 -2.67752,1.195959 -2.67752,2.67752 0,1.481561 1.195959,2.67752 2.67752,2.67752 1.481561,0 2.67752,-1.195959 2.67752,-2.67752 0,-1.481561 -1.195959,-2.67752 -2.67752,-2.67752 z"
   id="path2-2"
   style="fill:#ffffff;stroke-width:1;opacity:0.6" /></svg>