<?xml version="1.0" encoding="UTF-8" standalone="no"?>
<!-- Generator: Adobe Illustrator 17.0.1, SVG Export Plug-In . SVG Version: 6.00 Build 0)  -->

<svg
   xmlns:dc="http://purl.org/dc/elements/1.1/"
   xmlns:cc="http://creativecommons.org/ns#"
   xmlns:rdf="http://www.w3.org/1999/02/22-rdf-syntax-ns#"
   xmlns:svg="http://www.w3.org/2000/svg"
   xmlns="http://www.w3.org/2000/svg"
   xmlns:sodipodi="http://sodipodi.sourceforge.net/DTD/sodipodi-0.dtd"
   xmlns:inkscape="http://www.inkscape.org/namespaces/inkscape"
   version="1.1"
   id="Layer_1"
   x="0px"
   y="0px"
   width="64px"
   height="64px"
   viewBox="0 0 64 64"
   style="enable-background:new 0 0 64 64;"
   xml:space="preserve"
   sodipodi:docname="icon-m-colorpicker2.svg"
   inkscape:version="0.92.3 (2405546, 2018-03-11)"><metadata
   id="metadata19"><rdf:RDF><cc:Work
       rdf:about=""><dc:format>image/svg+xml</dc:format><dc:type
         rdf:resource="http://purl.org/dc/dcmitype/StillImage" /></cc:Work></rdf:RDF></metadata><defs
   id="defs17">
	
	

		
		
		
	</defs><sodipodi:namedview
   pagecolor="#ffffff"
   bordercolor="#666666"
   borderopacity="1"
   objecttolerance="10"
   gridtolerance="10"
   guidetolerance="10"
   inkscape:pageopacity="0"
   inkscape:pageshadow="2"
   inkscape:window-width="1920"
   inkscape:window-height="1055"
   id="namedview15"
   showgrid="false"
   inkscape:zoom="2.6074563"
   inkscape:cx="-83.133411"
   inkscape:cy="67.436596"
   inkscape:window-x="0"
   inkscape:window-y="0"
   inkscape:window-maximized="1"
   inkscape:current-layer="Layer_1"
   inkscape:measure-start="0,0"
   inkscape:measure-end="0,0" />
<rect
   y="0"
   x="0"
   height="64"
   width="64"
   style="opacity:0;fill:#ffffff"
   id="icon-m-add_3_" /><circle
   style="opacity:0.2;fill:#ffffff"
   cx="32"
   cy="32"
   r="24"
   id="circle3" />
<rect
   height="64"
   width="64"
   style="opacity:0;fill:#ffffff"
   id="icon-m-acknowledge_1_"
   x="0"
   y="0" /><rect
   y="0"
   x="0"
   height="64"
   width="64"
   style="opacity:0;fill:#ffffff"
   id="icon-m-battery_1_" /><g
   transform="matrix(0.02742958,0,0,0.0274297,18.219802,17.934704)"
   id="g6"
   style="fill:#ffffff;stroke:none;stroke-width:36.45691299"><g
     transform="matrix(0.94687014,0,0,0.94686608,28.937672,39.343136)"
     id="g38"
     style="stroke-width:1181.21606445"><path
       inkscape:connector-curvature="0"
       d="m 545.4,280.9 173.7,173.7 -416,416 L 71.3,990 10,928.6 129.5,696.8 Z M 849.3,324.3 954.1,219.6 C 1002,171.7 1002,94 954.1,46 906.1,-2 828.4,-2 780.5,46 L 675.7,150.7 632.3,107.3 c -24.1,-24 -62.8,-24 -86.9,0 -23.9,24 -23.9,62.8 0,86.8 l 260.5,260.5 c 24,23.8 62.8,23.8 86.8,0 24,-24.1 24,-62.8 0,-86.9 z"
       id="path36"
       style="stroke-width:1181.21606445" /></g></g></svg>