<?xml version="1.0" encoding="UTF-8" standalone="no"?>
<!-- Generator: Adobe Illustrator 17.0.1, SVG Export Plug-In . SVG Version: 6.00 Build 0)  -->

<svg
   xmlns:dc="http://purl.org/dc/elements/1.1/"
   xmlns:cc="http://creativecommons.org/ns#"
   xmlns:rdf="http://www.w3.org/1999/02/22-rdf-syntax-ns#"
   xmlns:svg="http://www.w3.org/2000/svg"
   xmlns="http://www.w3.org/2000/svg"
   xmlns:sodipodi="http://sodipodi.sourceforge.net/DTD/sodipodi-0.dtd"
   xmlns:inkscape="http://www.inkscape.org/namespaces/inkscape"
   version="1.1"
   id="Layer_1"
   x="0px"
   y="0px"
   width="64px"
   height="64px"
   viewBox="0 0 64 64"
   style="enable-background:new 0 0 64 64;"
   xml:space="preserve"
   sodipodi:docname="icon-m-point.svg"
   inkscape:version="0.92.3 (2405546, 2018-03-11)"><metadata
   id="metadata15"><rdf:RDF><cc:Work
       rdf:about=""><dc:format>image/svg+xml</dc:format><dc:type
         rdf:resource="http://purl.org/dc/dcmitype/StillImage" /><dc:title /></cc:Work></rdf:RDF></metadata><defs
   id="defs13"><marker
   inkscape:stockid="TriangleInM"
   orient="auto"
   refY="0.0"
   refX="0.0"
   id="TriangleInM"
   style="overflow:visible"
   inkscape:isstock="true"><path
     id="path980"
     d="M 5.77,0.0 L -2.88,5.0 L -2.88,-5.0 L 5.77,0.0 z "
     style="fill-rule:evenodd;stroke:#ffffff;stroke-width:1pt;stroke-opacity:1;fill:#ffffff;fill-opacity:1"
     transform="scale(-0.4)" /></marker><marker
   inkscape:stockid="TriangleOutM"
   orient="auto"
   refY="0.0"
   refX="0.0"
   id="TriangleOutM"
   style="overflow:visible"
   inkscape:isstock="true"><path
     id="path989"
     d="M 5.77,0.0 L -2.88,5.0 L -2.88,-5.0 L 5.77,0.0 z "
     style="fill-rule:evenodd;stroke:#ffffff;stroke-width:1pt;stroke-opacity:1;fill:#ffffff;fill-opacity:1"
     transform="scale(0.4)" /></marker><marker
   inkscape:stockid="TriangleInS"
   orient="auto"
   refY="0.0"
   refX="0.0"
   id="TriangleInS"
   style="overflow:visible"
   inkscape:isstock="true"><path
     id="path983"
     d="M 5.77,0.0 L -2.88,5.0 L -2.88,-5.0 L 5.77,0.0 z "
     style="fill-rule:evenodd;stroke:#ffffff;stroke-width:1pt;stroke-opacity:1;fill:#ffffff;fill-opacity:1"
     transform="scale(-0.2)" /></marker><marker
   inkscape:stockid="Arrow2Send"
   orient="auto"
   refY="0.0"
   refX="0.0"
   id="Arrow2Send"
   style="overflow:visible;"
   inkscape:isstock="true"><path
     id="path877"
     style="fill-rule:evenodd;stroke-width:0.625;stroke-linejoin:round;stroke:#ffffff;stroke-opacity:1;fill:#ffffff;fill-opacity:1"
     d="M 8.7185878,4.0337352 L -2.2072895,0.016013256 L 8.7185884,-4.0017078 C 6.9730900,-1.6296469 6.9831476,1.6157441 8.7185878,4.0337352 z "
     transform="scale(0.3) rotate(180) translate(-2.3,0)" /></marker><inkscape:path-effect
   effect="spiro"
   id="path-effect840"
   is_visible="true" /><inkscape:path-effect
   effect="spiro"
   id="path-effect833"
   is_visible="true" />
	
	
	
</defs><sodipodi:namedview
   pagecolor="#ffffff"
   bordercolor="#666666"
   borderopacity="1"
   objecttolerance="10"
   gridtolerance="10"
   guidetolerance="10"
   inkscape:pageopacity="0"
   inkscape:pageshadow="2"
   inkscape:window-width="1920"
   inkscape:window-height="1055"
   id="namedview11"
   showgrid="false"
   inkscape:zoom="10.429825"
   inkscape:cx="30.386139"
   inkscape:cy="32.424724"
   inkscape:window-x="0"
   inkscape:window-y="0"
   inkscape:window-maximized="1"
   inkscape:current-layer="Layer_1" />
<rect
   y="0"
   x="0"
   height="64"
   width="64"
   style="opacity:0;fill:#ffffff"
   id="icon-m-battery_1_" /><g
   id="g7"
   style="opacity:0.6">
		<path
   inkscape:connector-curvature="0"
   id="path5"
   d="M 49.729,54 H 14.272 C 11.917,54 10,52.083 10,49.728 V 14.272 C 10,11.917 11.917,10 14.272,10 H 49.729 C 52.084,10 54,11.917 54,14.272 V 49.727 C 54,52.083 52.084,54 49.729,54 Z M 14.272,12 C 13.019,12 12,13.02 12,14.272 V 49.727 C 12,50.98 13.019,52 14.272,52 H 49.729 C 50.981,52 52,50.98 52,49.728 V 14.272 C 52,13.02 50.981,12 49.729,12 Z"
   style="fill:#ffffff" />
	</g>
<path
   id="path4"
   d="M 33.995,22.767 C 33.301,22.618 32.648,22.545 32,22.545 c -0.648,0 -1.302,0.072 -1.995,0.222 -4.259,0.916 -7.352,4.743 -7.37,9.107 -0.001,0.046 -0.002,0.086 -0.002,0.126 0,0.04 0.001,0.08 0.002,0.126 0.019,4.364 3.111,8.191 7.37,9.107 0.693,0.149 1.347,0.222 1.995,0.222 0.648,0 1.301,-0.072 1.995,-0.222 4.259,-0.916 7.352,-4.743 7.37,-9.107 10e-4,-0.046 0.002,-0.086 0.002,-0.126 0,-0.039 -10e-4,-0.08 -0.002,-0.126 -0.019,-4.364 -3.111,-8.191 -7.37,-9.107 z"
   style="opacity:1;fill:#ffffff"
   inkscape:connector-curvature="0" /><rect
   height="64"
   width="64"
   style="opacity:0;fill:#ffffff"
   id="icon-m-call-recording-off_1_"
   x="-31.18644"
   y="-8.1355934" /></svg>