<?xml version="1.0" encoding="UTF-8" standalone="no"?>
<svg
   xmlns:dc="http://purl.org/dc/elements/1.1/"
   xmlns:cc="http://creativecommons.org/ns#"
   xmlns:rdf="http://www.w3.org/1999/02/22-rdf-syntax-ns#"
   xmlns:svg="http://www.w3.org/2000/svg"
   xmlns="http://www.w3.org/2000/svg"
   xmlns:sodipodi="http://sodipodi.sourceforge.net/DTD/sodipodi-0.dtd"
   xmlns:inkscape="http://www.inkscape.org/namespaces/inkscape"
   version="1.1"
   id="Layer_1"
   x="0px"
   y="0px"
   width="64px"
   height="64px"
   viewBox="0 0 64 64"
   style="enable-background:new 0 0 64 64;"
   xml:space="preserve"
   sodipodi:docname="icon-m-rename.svg"
   inkscape:version="1.0 (1.0+r73+1)"><metadata
   id="metadata15"><rdf:RDF><cc:Work
       rdf:about=""><dc:format>image/svg+xml</dc:format><dc:type
         rdf:resource="http://purl.org/dc/dcmitype/StillImage" /><dc:title /></cc:Work></rdf:RDF></metadata><defs
   id="defs13"><inkscape:path-effect
   effect="spiro"
   id="path-effect833"
   is_visible="true" />
	
	
	
</defs><sodipodi:namedview
   pagecolor="#ffffff"
   bordercolor="#666666"
   borderopacity="1"
   objecttolerance="10"
   gridtolerance="10"
   guidetolerance="10"
   inkscape:pageopacity="0"
   inkscape:pageshadow="2"
   inkscape:window-width="1920"
   inkscape:window-height="1056"
   id="namedview11"
   showgrid="false"
   inkscape:zoom="10.429825"
   inkscape:cx="15.141439"
   inkscape:cy="37.557428"
   inkscape:window-x="1920"
   inkscape:window-y="0"
   inkscape:window-maximized="1"
   inkscape:current-layer="Layer_1"
   inkscape:document-rotation="0"
   inkscape:snap-bbox="true"
   inkscape:snap-bbox-edge-midpoints="true" />
<rect
   y="0"
   x="0"
   height="64"
   width="64"
   style="opacity:0;fill:#ffffff"
   id="icon-m-battery_1_" /><g
   id="g7"
   style="opacity:0.6">
		<path
   inkscape:connector-curvature="0"
   id="path5"
   d="M 49.729,54 H 14.272 C 11.917,54 10,52.083 10,49.728 V 14.272 C 10,11.917 11.917,10 14.272,10 H 49.729 C 52.084,10 54,11.917 54,14.272 V 49.727 C 54,52.083 52.084,54 49.729,54 Z M 14.272,12 C 13.019,12 12,13.02 12,14.272 V 49.727 C 12,50.98 13.019,52 14.272,52 H 49.729 C 50.981,52 52,50.98 52,49.728 V 14.272 C 52,13.02 50.981,12 49.729,12 Z"
   style="fill:#ffffff" />
	</g>
<rect
   height="46.76535"
   width="46.76535"
   style="opacity:0;fill:#ffffff;stroke-width:1"
   id="icon-s-group-chat_1_"
   x="8.6173248"
   y="8.617321" /><circle
   id="circle7"
   r="2.5"
   cy="42.081291"
   cx="35.407951"
   style="fill:#ffffff" /><g
   id="g13"
   transform="translate(-9.6704741,2.250562)"><path
     sodipodi:nodetypes="sssccssssssccssss"
     transform="translate(9.6704741,-2.250562)"
     d="m 18.509766,19.478516 c -0.552,0 -1,0.447 -1,1 0,0.553 0.448,1 1,1 h 4.017578 c -0.02462,7.484105 -0.01067,14.160756 0,21.101562 h -4.017578 c -0.552,0 -1,0.447 -1,1 0,0.553 0.448,1 1,1 h 9.662109 c 0.553,0 1,-0.447 1,-1 0,-0.553 -0.447,-1 -1,-1 h -3.644531 c -0.02575,-7.033864 -0.01172,-14.067695 0,-21.101562 h 3.644531 c 0.553,0 1,-0.447 1,-1 0,-0.553 -0.447,-1 -1,-1 z"
     style="fill:#ffffff"
     id="path9" /></g><circle
   style="fill:#ffffff"
   cx="43.407951"
   cy="42.081291"
   r="2.5"
   id="circle7-3" /></svg>
