<?xml version="1.0" encoding="UTF-8" standalone="no"?>
<!-- Generator: Adobe Illustrator 19.1.0, SVG Export Plug-In . SVG Version: 6.00 Build 0)  -->

<svg
   xmlns:dc="http://purl.org/dc/elements/1.1/"
   xmlns:cc="http://creativecommons.org/ns#"
   xmlns:rdf="http://www.w3.org/1999/02/22-rdf-syntax-ns#"
   xmlns:svg="http://www.w3.org/2000/svg"
   xmlns="http://www.w3.org/2000/svg"
   xmlns:sodipodi="http://sodipodi.sourceforge.net/DTD/sodipodi-0.dtd"
   xmlns:inkscape="http://www.inkscape.org/namespaces/inkscape"
   version="1.1"
   id="Layer_1"
   x="0px"
   y="0px"
   viewBox="0 0 64 64"
   style="enable-background:new 0 0 64 64;"
   xml:space="preserve"
   sodipodi:docname="icon-m-area.svg"
   inkscape:version="0.92.3 (2405546, 2018-03-11)"><metadata
   id="metadata15"><rdf:RDF><cc:Work
       rdf:about=""><dc:format>image/svg+xml</dc:format><dc:type
         rdf:resource="http://purl.org/dc/dcmitype/StillImage" /></cc:Work></rdf:RDF></metadata><defs
   id="defs13">
	
	
	
	
</defs><sodipodi:namedview
   pagecolor="#ffffff"
   bordercolor="#666666"
   borderopacity="1"
   objecttolerance="10"
   gridtolerance="10"
   guidetolerance="10"
   inkscape:pageopacity="0"
   inkscape:pageshadow="2"
   inkscape:window-width="1920"
   inkscape:window-height="1055"
   id="namedview11"
   showgrid="false"
   inkscape:zoom="2.6074563"
   inkscape:cx="-41.74592"
   inkscape:cy="53.397453"
   inkscape:window-x="1920"
   inkscape:window-y="0"
   inkscape:window-maximized="1"
   inkscape:current-layer="Layer_1" />
<rect
   y="0"
   x="0"
   height="64"
   width="64"
   style="opacity:0;fill:#ffffff"
   id="icon-m-file-image_1_" /><path
   inkscape:connector-curvature="0"
   id="path7"
   d="M 50.125,56 H 13.875 C 11.738,56 10,54.262 10,52.125 V 11.875 C 10,9.738 11.738,8 13.875,8 h 36.25 C 52.262,8 54,9.738 54,11.875 v 40.25 C 54,54.262 52.262,56 50.125,56 Z M 13.875,10 C 12.841,10 12,10.841 12,11.875 v 40.25 C 12,53.159 12.841,54 13.875,54 h 36.25 C 51.159,54 52,53.159 52,52.125 V 11.875 C 52,10.841 51.159,10 50.125,10 Z"
   style="opacity:0.6;fill:#ffffff" />
<path
   inkscape:connector-curvature="0"
   id="path3"
   d="M 42.005611,43.199328 H 21.995048 c -0.658785,0 -1.194376,-0.535592 -1.194376,-1.194376 V 21.995048 c 0,-0.658785 0.535591,-1.194376 1.194376,-1.194376 h 20.010563 c 0.658126,0 1.193717,0.535591 1.193717,1.194376 v 20.010563 c 0,0.658125 -0.535591,1.193717 -1.193717,1.193717 z"
   style="fill:#ffffff;stroke-width:1"
   sodipodi:nodetypes="sssssssss" /></svg>