<?xml version="1.0" encoding="UTF-8" standalone="no"?>
<svg
   xmlns:dc="http://purl.org/dc/elements/1.1/"
   xmlns:cc="http://creativecommons.org/ns#"
   xmlns:rdf="http://www.w3.org/1999/02/22-rdf-syntax-ns#"
   xmlns:svg="http://www.w3.org/2000/svg"
   xmlns="http://www.w3.org/2000/svg"
   xmlns:sodipodi="http://sodipodi.sourceforge.net/DTD/sodipodi-0.dtd"
   xmlns:inkscape="http://www.inkscape.org/namespaces/inkscape"
   inkscape:version="1.0 (1.0+r73+1)"
   sodipodi:docname="icon-m-deletepage.svg"
   xml:space="preserve"
   style="enable-background:new 0 0 64 64;"
   viewBox="0 0 64 64"
   height="64px"
   width="64px"
   y="0px"
   x="0px"
   id="Layer_1"
   version="1.1"><metadata
   id="metadata15"><rdf:RDF><cc:Work
       rdf:about=""><dc:format>image/svg+xml</dc:format><dc:type
         rdf:resource="http://purl.org/dc/dcmitype/StillImage" /><dc:title /></cc:Work></rdf:RDF></metadata><defs
   id="defs13"><inkscape:path-effect
   is_visible="true"
   id="path-effect833"
   effect="spiro" />
	
	
	
</defs><sodipodi:namedview
   inkscape:snap-bbox-edge-midpoints="false"
   inkscape:snap-bbox="true"
   inkscape:document-rotation="0"
   inkscape:current-layer="Layer_1"
   inkscape:window-maximized="1"
   inkscape:window-y="0"
   inkscape:window-x="1920"
   inkscape:cy="45.10117"
   inkscape:cx="35.713047"
   inkscape:zoom="7.375"
   showgrid="false"
   id="namedview11"
   inkscape:window-height="1056"
   inkscape:window-width="1920"
   inkscape:pageshadow="2"
   inkscape:pageopacity="0"
   guidetolerance="10"
   gridtolerance="10"
   objecttolerance="10"
   borderopacity="1"
   bordercolor="#666666"
   pagecolor="#ffffff" />
<rect
   id="icon-m-battery_1_"
   style="opacity:0;fill:#ffffff"
   width="64"
   height="64"
   x="0"
   y="0" /><g
   style="opacity:0.6"
   id="g7">
		<path
   style="fill:#ffffff"
   d="M 49.729,54 H 14.272 C 11.917,54 10,52.083 10,49.728 V 14.272 C 10,11.917 11.917,10 14.272,10 H 49.729 C 52.084,10 54,11.917 54,14.272 V 49.727 C 54,52.083 52.084,54 49.729,54 Z M 14.272,12 C 13.019,12 12,13.02 12,14.272 V 49.727 C 12,50.98 13.019,52 14.272,52 H 49.729 C 50.981,52 52,50.98 52,49.728 V 14.272 C 52,13.02 50.981,12 49.729,12 Z"
   id="path5"
   inkscape:connector-curvature="0" />
	</g>
<rect
   y="8.617321"
   x="8.6173248"
   id="icon-s-group-chat_1_"
   style="opacity:0;fill:#ffffff;stroke-width:1"
   width="46.76535"
   height="46.76535" /><g
   transform="matrix(0.68472202,0,0,0.68472202,40.448773,8.6033965)"
   id="g862"><g
     style="opacity:0.6"
     id="g5"
     transform="translate(-44.337983,2.4019915)"><path
       style="fill:#ffffff"
       d="M 42.856,53.668 H 21.144 c -2.757,0 -5,-2.243 -5,-5 V 19.067 c 0,-0.552 0.448,-1 1,-1 0.552,0 1,0.448 1,1 v 29.601 c 0,1.654 1.346,3 3,3 h 21.713 c 1.654,0 3,-1.346 3,-3 V 19.067 c 0,-0.552 0.447,-1 1,-1 0.553,0 1,0.448 1,1 v 29.601 c -10e-4,2.757 -2.244,5 -5.001,5 z"
       id="path3" /></g><path
     style="opacity:0.6;fill:#ffffff"
     d="m -19.911983,49.103992 c -0.552,0 -1,-0.447 -1,-1 v -20.445 c 0,-0.552 0.448,-1 1,-1 0.552,0 1,0.448 1,1 v 20.445 c 0,0.553 -0.448,1 -1,1 z"
     id="path7" /><path
     style="opacity:0.6;fill:#ffffff"
     d="m -12.337983,49.103992 c -0.552,0 -1,-0.447 -1,-1 v -20.445 c 0,-0.552 0.448,-1 1,-1 0.552,0 1,0.448 1,1 v 20.445 c 0,0.553 -0.448,1 -1,1 z"
     id="path9-3" /><path
     style="opacity:0.6;fill:#ffffff"
     d="m -4.7639831,49.103992 c -0.553,0 -1,-0.447 -1,-1 v -20.445 c 0,-0.552 0.447,-1 1,-1 0.553,0 1,0.448 1,1 v 20.445 c 0,0.553 -0.447,1 -1,1 z"
     id="path11" /><path
     style="fill:#ffffff"
     d="M 2.5310169,22.268992 H -27.208983 c -2.757,0 -5,-2.243 -5,-5 0,-2.757 2.243,-5 5,-5 H 2.5310169 c 2.757,0 5,2.243 5,5 0,2.757 -2.243,5 -5,5 z m -29.7399999,-8 c -1.654,0 -3,1.346 -3,3 0,1.654 1.346,3 3,3 H 2.5310169 c 1.654,0 3,-1.346 3,-3 0,-1.654 -1.346,-3 -3,-3 z"
     id="path13" /></g></svg>
