<?xml version="1.0" encoding="UTF-8" standalone="no"?>
<!-- Generator: Adobe Illustrator 17.0.1, SVG Export Plug-In . SVG Version: 6.00 Build 0)  -->

<svg
   xmlns:dc="http://purl.org/dc/elements/1.1/"
   xmlns:cc="http://creativecommons.org/ns#"
   xmlns:rdf="http://www.w3.org/1999/02/22-rdf-syntax-ns#"
   xmlns:svg="http://www.w3.org/2000/svg"
   xmlns="http://www.w3.org/2000/svg"
   xmlns:sodipodi="http://sodipodi.sourceforge.net/DTD/sodipodi-0.dtd"
   xmlns:inkscape="http://www.inkscape.org/namespaces/inkscape"
   version="1.1"
   id="Layer_1"
   x="0px"
   y="0px"
   width="64px"
   height="64px"
   viewBox="0 0 64 64"
   style="enable-background:new 0 0 64 64;"
   xml:space="preserve"
   sodipodi:docname="icon-m-line.svg"
   inkscape:version="0.92.3 (2405546, 2018-03-11)"><metadata
   id="metadata15"><rdf:RDF><cc:Work
       rdf:about=""><dc:format>image/svg+xml</dc:format><dc:type
         rdf:resource="http://purl.org/dc/dcmitype/StillImage" /><dc:title /></cc:Work></rdf:RDF></metadata><defs
   id="defs13"><inkscape:path-effect
   effect="spiro"
   id="path-effect884"
   is_visible="true" /><marker
   inkscape:stockid="TriangleInM"
   orient="auto"
   refY="0.0"
   refX="0.0"
   id="TriangleInM"
   style="overflow:visible"
   inkscape:isstock="true"><path
     id="path980"
     d="M 5.77,0.0 L -2.88,5.0 L -2.88,-5.0 L 5.77,0.0 z "
     style="fill-rule:evenodd;stroke:#ffffff;stroke-width:1pt;stroke-opacity:1;fill:#ffffff;fill-opacity:1"
     transform="scale(-0.4)" /></marker><marker
   inkscape:stockid="TriangleOutM"
   orient="auto"
   refY="0.0"
   refX="0.0"
   id="TriangleOutM"
   style="overflow:visible"
   inkscape:isstock="true"><path
     id="path989"
     d="M 5.77,0.0 L -2.88,5.0 L -2.88,-5.0 L 5.77,0.0 z "
     style="fill-rule:evenodd;stroke:#ffffff;stroke-width:1pt;stroke-opacity:1;fill:#ffffff;fill-opacity:1"
     transform="scale(0.4)" /></marker><marker
   inkscape:stockid="TriangleInS"
   orient="auto"
   refY="0.0"
   refX="0.0"
   id="TriangleInS"
   style="overflow:visible"
   inkscape:isstock="true"><path
     id="path983"
     d="M 5.77,0.0 L -2.88,5.0 L -2.88,-5.0 L 5.77,0.0 z "
     style="fill-rule:evenodd;stroke:#ffffff;stroke-width:1pt;stroke-opacity:1;fill:#ffffff;fill-opacity:1"
     transform="scale(-0.2)" /></marker><marker
   inkscape:stockid="Arrow2Send"
   orient="auto"
   refY="0.0"
   refX="0.0"
   id="Arrow2Send"
   style="overflow:visible;"
   inkscape:isstock="true"><path
     id="path877"
     style="fill-rule:evenodd;stroke-width:0.625;stroke-linejoin:round;stroke:#ffffff;stroke-opacity:1;fill:#ffffff;fill-opacity:1"
     d="M 8.7185878,4.0337352 L -2.2072895,0.016013256 L 8.7185884,-4.0017078 C 6.9730900,-1.6296469 6.9831476,1.6157441 8.7185878,4.0337352 z "
     transform="scale(0.3) rotate(180) translate(-2.3,0)" /></marker><inkscape:path-effect
   effect="spiro"
   id="path-effect840"
   is_visible="true" /><inkscape:path-effect
   effect="spiro"
   id="path-effect833"
   is_visible="true" />
	
	
	
</defs><sodipodi:namedview
   pagecolor="#ffffff"
   bordercolor="#666666"
   borderopacity="1"
   objecttolerance="10"
   gridtolerance="10"
   guidetolerance="10"
   inkscape:pageopacity="0"
   inkscape:pageshadow="2"
   inkscape:window-width="1920"
   inkscape:window-height="1055"
   id="namedview11"
   showgrid="false"
   inkscape:zoom="3.6875"
   inkscape:cx="30.717516"
   inkscape:cy="46.724294"
   inkscape:window-x="0"
   inkscape:window-y="0"
   inkscape:window-maximized="1"
   inkscape:current-layer="Layer_1" />
<rect
   y="0"
   x="0"
   height="64"
   width="64"
   style="opacity:0;fill:#ffffff"
   id="icon-m-battery_1_" /><g
   id="g7"
   style="opacity:0.6"
   transform="rotate(-180,31.999999,32)">
		<path
   inkscape:connector-curvature="0"
   id="path5"
   d="M 49.729,54 H 14.272 C 11.917,54 10,52.083 10,49.728 V 14.272 C 10,11.917 11.917,10 14.272,10 H 49.729 C 52.084,10 54,11.917 54,14.272 V 49.727 C 54,52.083 52.084,54 49.729,54 Z M 14.272,12 C 13.019,12 12,13.02 12,14.272 V 49.727 C 12,50.98 13.019,52 14.272,52 H 49.729 C 50.981,52 52,50.98 52,49.728 V 14.272 C 52,13.02 50.981,12 49.729,12 Z"
   style="fill:#ffffff" />
	</g>
<rect
   height="64"
   width="64"
   style="opacity:0;fill:#ffffff"
   id="icon-m-call-recording-off_1_"
   x="-31.18644"
   y="-8.1355934" /><rect
   y="5.9209433"
   x="9.803196"
   height="64"
   width="64"
   style="opacity:0;fill:#ffffff"
   id="icon-m-battery_1_-3" /><path
   inkscape:connector-curvature="0"
   id="path18"
   d="M 22.045586,19.734478 43.457692,42.839947 41.990902,44.199322 20.578789,21.093853 Z"
   style="color:#000000;font-style:normal;font-variant:normal;font-weight:normal;font-stretch:normal;font-size:medium;line-height:normal;font-family:sans-serif;font-variant-ligatures:normal;font-variant-position:normal;font-variant-caps:normal;font-variant-numeric:normal;font-variant-alternates:normal;font-feature-settings:normal;text-indent:0;text-align:start;text-decoration:none;text-decoration-line:none;text-decoration-style:solid;text-decoration-color:#000000;letter-spacing:normal;word-spacing:normal;text-transform:none;writing-mode:lr-tb;direction:ltr;text-orientation:mixed;dominant-baseline:auto;baseline-shift:baseline;text-anchor:start;white-space:normal;shape-padding:0;clip-rule:nonzero;display:inline;overflow:visible;visibility:visible;opacity:1;isolation:auto;mix-blend-mode:normal;color-interpolation:sRGB;color-interpolation-filters:linearRGB;solid-color:#000000;solid-opacity:1;vector-effect:none;fill:#ffffff;fill-opacity:1;fill-rule:nonzero;stroke:#ffffff;stroke-width:1.2;stroke-linecap:butt;stroke-linejoin:miter;stroke-miterlimit:4;stroke-dasharray:none;stroke-dashoffset:0;stroke-opacity:1;color-rendering:auto;image-rendering:auto;shape-rendering:auto;text-rendering:auto;enable-background:accumulate" /><path
   inkscape:connector-curvature="0"
   id="path1868-5"
   d="m 40.901683,44.911235 a 2.9761507,2.9761507 0 0 1 2.976151,-2.976151 2.9761507,2.9761507 0 0 1 2.976151,2.976151 2.9761507,2.9761507 0 0 1 -2.976151,2.976151 2.9761507,2.9761507 0 0 1 -2.976151,-2.976151 z"
   style="opacity:1;fill:#ffffff;fill-opacity:1;stroke:#ffffff;stroke-width:1.5;stroke-miterlimit:4;stroke-dasharray:none;stroke-opacity:1" /><path
   inkscape:connector-curvature="0"
   id="path1868-5-7"
   d="m 23.098313,19.088765 a 2.9761507,2.9761507 0 0 1 -2.976151,2.976151 2.9761507,2.9761507 0 0 1 -2.976151,-2.976151 2.9761507,2.9761507 0 0 1 2.976151,-2.976151 2.9761507,2.9761507 0 0 1 2.976151,2.976151 z"
   style="opacity:1;fill:#ffffff;fill-opacity:1;stroke:#ffffff;stroke-width:1.5;stroke-miterlimit:4;stroke-dasharray:none;stroke-opacity:1" /></svg>