<?xml version="1.0" encoding="UTF-8" standalone="no"?>
<!-- Generator: Adobe Illustrator 17.0.1, SVG Export Plug-In . SVG Version: 6.00 Build 0)  -->

<svg
   xmlns:dc="http://purl.org/dc/elements/1.1/"
   xmlns:cc="http://creativecommons.org/ns#"
   xmlns:rdf="http://www.w3.org/1999/02/22-rdf-syntax-ns#"
   xmlns:svg="http://www.w3.org/2000/svg"
   xmlns="http://www.w3.org/2000/svg"
   xmlns:sodipodi="http://sodipodi.sourceforge.net/DTD/sodipodi-0.dtd"
   xmlns:inkscape="http://www.inkscape.org/namespaces/inkscape"
   version="1.1"
   id="Layer_1"
   x="0px"
   y="0px"
   width="64px"
   height="64px"
   viewBox="0 0 64 64"
   style="enable-background:new 0 0 64 64;"
   xml:space="preserve"
   sodipodi:docname="icon-m-colorpicker.svg"
   inkscape:version="0.92.3 (2405546, 2018-03-11)"><metadata
   id="metadata15"><rdf:RDF><cc:Work
       rdf:about=""><dc:format>image/svg+xml</dc:format><dc:type
         rdf:resource="http://purl.org/dc/dcmitype/StillImage" /><dc:title /></cc:Work></rdf:RDF></metadata><defs
   id="defs13"><marker
   inkscape:stockid="TriangleInM"
   orient="auto"
   refY="0.0"
   refX="0.0"
   id="TriangleInM"
   style="overflow:visible"
   inkscape:isstock="true"><path
     id="path980"
     d="M 5.77,0.0 L -2.88,5.0 L -2.88,-5.0 L 5.77,0.0 z "
     style="fill-rule:evenodd;stroke:#ffffff;stroke-width:1pt;stroke-opacity:1;fill:#ffffff;fill-opacity:1"
     transform="scale(-0.4)" /></marker><marker
   inkscape:stockid="TriangleOutM"
   orient="auto"
   refY="0.0"
   refX="0.0"
   id="TriangleOutM"
   style="overflow:visible"
   inkscape:isstock="true"><path
     id="path989"
     d="M 5.77,0.0 L -2.88,5.0 L -2.88,-5.0 L 5.77,0.0 z "
     style="fill-rule:evenodd;stroke:#ffffff;stroke-width:1pt;stroke-opacity:1;fill:#ffffff;fill-opacity:1"
     transform="scale(0.4)" /></marker><marker
   inkscape:stockid="TriangleInS"
   orient="auto"
   refY="0.0"
   refX="0.0"
   id="TriangleInS"
   style="overflow:visible"
   inkscape:isstock="true"><path
     id="path983"
     d="M 5.77,0.0 L -2.88,5.0 L -2.88,-5.0 L 5.77,0.0 z "
     style="fill-rule:evenodd;stroke:#ffffff;stroke-width:1pt;stroke-opacity:1;fill:#ffffff;fill-opacity:1"
     transform="scale(-0.2)" /></marker><marker
   inkscape:stockid="Arrow2Send"
   orient="auto"
   refY="0.0"
   refX="0.0"
   id="Arrow2Send"
   style="overflow:visible;"
   inkscape:isstock="true"><path
     id="path877"
     style="fill-rule:evenodd;stroke-width:0.625;stroke-linejoin:round;stroke:#ffffff;stroke-opacity:1;fill:#ffffff;fill-opacity:1"
     d="M 8.7185878,4.0337352 L -2.2072895,0.016013256 L 8.7185884,-4.0017078 C 6.9730900,-1.6296469 6.9831476,1.6157441 8.7185878,4.0337352 z "
     transform="scale(0.3) rotate(180) translate(-2.3,0)" /></marker><inkscape:path-effect
   effect="spiro"
   id="path-effect840"
   is_visible="true" /><inkscape:path-effect
   effect="spiro"
   id="path-effect833"
   is_visible="true" />
	
	
	
</defs><sodipodi:namedview
   pagecolor="#ffffff"
   bordercolor="#666666"
   borderopacity="1"
   objecttolerance="10"
   gridtolerance="10"
   guidetolerance="10"
   inkscape:pageopacity="0"
   inkscape:pageshadow="2"
   inkscape:window-width="1920"
   inkscape:window-height="1055"
   id="namedview11"
   showgrid="false"
   inkscape:zoom="7.375"
   inkscape:cx="18.575296"
   inkscape:cy="21.568461"
   inkscape:window-x="0"
   inkscape:window-y="0"
   inkscape:window-maximized="1"
   inkscape:current-layer="Layer_1" />
<rect
   y="0"
   x="0"
   height="64"
   width="64"
   style="opacity:0;fill:#ffffff"
   id="icon-m-battery_1_" /><g
   id="g7"
   style="opacity:0.6"
   transform="translate(3.7807549e-6)">
		<path
   inkscape:connector-curvature="0"
   id="path5"
   d="M 49.729,54 H 14.272 C 11.917,54 10,52.083 10,49.728 V 14.272 C 10,11.917 11.917,10 14.272,10 H 49.729 C 52.084,10 54,11.917 54,14.272 V 49.727 C 54,52.083 52.084,54 49.729,54 Z M 14.272,12 C 13.019,12 12,13.02 12,14.272 V 49.727 C 12,50.98 13.019,52 14.272,52 H 49.729 C 50.981,52 52,50.98 52,49.728 V 14.272 C 52,13.02 50.981,12 49.729,12 Z"
   style="fill:#ffffff" />
	</g>
<g
   transform="matrix(0.03259568,0,0,0.03259582,15.624437,15.28564)"
   id="g6"
   style="fill:#ffffff;stroke:none;stroke-width:30.67884445"><g
     transform="matrix(0.94687014,0,0,0.94686608,28.937672,39.343136)"
     id="g38"
     style="stroke-width:994.00482178"><path
       inkscape:connector-curvature="0"
       d="m 545.4,280.9 173.7,173.7 -416,416 L 71.3,990 10,928.6 129.5,696.8 Z M 849.3,324.3 954.1,219.6 C 1002,171.7 1002,94 954.1,46 906.1,-2 828.4,-2 780.5,46 L 675.7,150.7 632.3,107.3 c -24.1,-24 -62.8,-24 -86.9,0 -23.9,24 -23.9,62.8 0,86.8 l 260.5,260.5 c 24,23.8 62.8,23.8 86.8,0 24,-24.1 24,-62.8 0,-86.9 z"
       id="path36"
       style="stroke-width:994.00482178" /></g></g></svg>