<?xml version="1.0" encoding="UTF-8" standalone="no"?>
<!-- Generator: Adobe Illustrator 17.0.1, SVG Export Plug-In . SVG Version: 6.00 Build 0)  -->

<svg
   xmlns:dc="http://purl.org/dc/elements/1.1/"
   xmlns:cc="http://creativecommons.org/ns#"
   xmlns:rdf="http://www.w3.org/1999/02/22-rdf-syntax-ns#"
   xmlns:svg="http://www.w3.org/2000/svg"
   xmlns="http://www.w3.org/2000/svg"
   xmlns:sodipodi="http://sodipodi.sourceforge.net/DTD/sodipodi-0.dtd"
   xmlns:inkscape="http://www.inkscape.org/namespaces/inkscape"
   version="1.1"
   id="Layer_1"
   x="0px"
   y="0px"
   width="64px"
   height="64px"
   viewBox="0 0 64 64"
   style="enable-background:new 0 0 64 64;"
   xml:space="preserve"
   sodipodi:docname="icon-m-add.svg"
   inkscape:version="0.92.3 (2405546, 2018-03-11)"><metadata
   id="metadata19"><rdf:RDF><cc:Work
       rdf:about=""><dc:format>image/svg+xml</dc:format><dc:type
         rdf:resource="http://purl.org/dc/dcmitype/StillImage" /></cc:Work></rdf:RDF></metadata><defs
   id="defs17">
	
	

		
		
		
	</defs><sodipodi:namedview
   pagecolor="#ffffff"
   bordercolor="#666666"
   borderopacity="1"
   objecttolerance="10"
   gridtolerance="10"
   guidetolerance="10"
   inkscape:pageopacity="0"
   inkscape:pageshadow="2"
   inkscape:window-width="1920"
   inkscape:window-height="1055"
   id="namedview15"
   showgrid="false"
   inkscape:zoom="7.375"
   inkscape:cx="28.106198"
   inkscape:cy="11.555046"
   inkscape:window-x="0"
   inkscape:window-y="0"
   inkscape:window-maximized="1"
   inkscape:current-layer="Layer_1" />
<rect
   y="0"
   x="0"
   height="64"
   width="64"
   style="opacity:0;fill:#ffffff"
   id="icon-m-add_3_" /><circle
   style="opacity:0.2;fill:#ffffff"
   cx="32"
   cy="32"
   r="24"
   id="circle3" />
<rect
   height="64"
   width="64"
   style="opacity:0;fill:#ffffff"
   id="icon-m-acknowledge_1_"
   x="0"
   y="0" /><path
   id="path5"
   d="m 30.044,43.151 c -0.012,0 -0.024,0 -0.036,0 -1.231,-0.012 -2.412,-0.636 -3.24,-1.713 l -7.561,-9.829 c -0.337,-0.438 -0.255,-1.066 0.183,-1.402 0.438,-0.338 1.065,-0.254 1.402,0.183 l 7.561,9.83 c 0.458,0.595 1.052,0.926 1.674,0.932 0.659,-0.02 1.223,-0.313 1.691,-0.899 l 13.5,-16.876 c 0.346,-0.431 0.975,-0.502 1.406,-0.156 0.431,0.345 0.501,0.974 0.156,1.405 l -13.5,16.876 c -0.84,1.05 -2.018,1.649 -3.236,1.649 z"
   style="fill:#ffffff"
   inkscape:connector-curvature="0" /></svg>