<?xml version="1.0" encoding="UTF-8" standalone="no"?>
<!-- Generator: Adobe Illustrator 17.0.1, SVG Export Plug-In . SVG Version: 6.00 Build 0)  -->

<svg
   xmlns:dc="http://purl.org/dc/elements/1.1/"
   xmlns:cc="http://creativecommons.org/ns#"
   xmlns:rdf="http://www.w3.org/1999/02/22-rdf-syntax-ns#"
   xmlns:svg="http://www.w3.org/2000/svg"
   xmlns="http://www.w3.org/2000/svg"
   xmlns:sodipodi="http://sodipodi.sourceforge.net/DTD/sodipodi-0.dtd"
   xmlns:inkscape="http://www.inkscape.org/namespaces/inkscape"
   version="1.1"
   id="Layer_1"
   x="0px"
   y="0px"
   width="64px"
   height="64px"
   viewBox="0 0 64 64"
   style="enable-background:new 0 0 64 64;"
   xml:space="preserve"
   sodipodi:docname="icon-m-colorcurve.svg"
   inkscape:version="0.92.3 (2405546, 2018-03-11)"><metadata
   id="metadata15"><rdf:RDF><cc:Work
       rdf:about=""><dc:format>image/svg+xml</dc:format><dc:type
         rdf:resource="http://purl.org/dc/dcmitype/StillImage" /><dc:title /></cc:Work></rdf:RDF></metadata><defs
   id="defs13"><inkscape:path-effect
   effect="bspline"
   id="path-effect890"
   is_visible="true"
   weight="33.333333"
   steps="2"
   helper_size="0"
   apply_no_weight="true"
   apply_with_weight="true"
   only_selected="false" /><inkscape:path-effect
   effect="bspline"
   id="path-effect886"
   is_visible="true"
   weight="33.333333"
   steps="2"
   helper_size="0"
   apply_no_weight="true"
   apply_with_weight="true"
   only_selected="false" /><inkscape:path-effect
   effect="spiro"
   id="path-effect884"
   is_visible="true" /><marker
   inkscape:stockid="TriangleInM"
   orient="auto"
   refY="0.0"
   refX="0.0"
   id="TriangleInM"
   style="overflow:visible"
   inkscape:isstock="true"><path
     id="path980"
     d="M 5.77,0.0 L -2.88,5.0 L -2.88,-5.0 L 5.77,0.0 z "
     style="fill-rule:evenodd;stroke:#ffffff;stroke-width:1pt;stroke-opacity:1;fill:#ffffff;fill-opacity:1"
     transform="scale(-0.4)" /></marker><marker
   inkscape:stockid="TriangleOutM"
   orient="auto"
   refY="0.0"
   refX="0.0"
   id="TriangleOutM"
   style="overflow:visible"
   inkscape:isstock="true"><path
     id="path989"
     d="M 5.77,0.0 L -2.88,5.0 L -2.88,-5.0 L 5.77,0.0 z "
     style="fill-rule:evenodd;stroke:#ffffff;stroke-width:1pt;stroke-opacity:1;fill:#ffffff;fill-opacity:1"
     transform="scale(0.4)" /></marker><marker
   inkscape:stockid="TriangleInS"
   orient="auto"
   refY="0.0"
   refX="0.0"
   id="TriangleInS"
   style="overflow:visible"
   inkscape:isstock="true"><path
     id="path983"
     d="M 5.77,0.0 L -2.88,5.0 L -2.88,-5.0 L 5.77,0.0 z "
     style="fill-rule:evenodd;stroke:#ffffff;stroke-width:1pt;stroke-opacity:1;fill:#ffffff;fill-opacity:1"
     transform="scale(-0.2)" /></marker><marker
   inkscape:stockid="Arrow2Send"
   orient="auto"
   refY="0.0"
   refX="0.0"
   id="Arrow2Send"
   style="overflow:visible;"
   inkscape:isstock="true"><path
     id="path877"
     style="fill-rule:evenodd;stroke-width:0.625;stroke-linejoin:round;stroke:#ffffff;stroke-opacity:1;fill:#ffffff;fill-opacity:1"
     d="M 8.7185878,4.0337352 L -2.2072895,0.016013256 L 8.7185884,-4.0017078 C 6.9730900,-1.6296469 6.9831476,1.6157441 8.7185878,4.0337352 z "
     transform="scale(0.3) rotate(180) translate(-2.3,0)" /></marker><inkscape:path-effect
   effect="spiro"
   id="path-effect840"
   is_visible="true" /><inkscape:path-effect
   effect="spiro"
   id="path-effect833"
   is_visible="true" />
	
	
	
</defs><sodipodi:namedview
   pagecolor="#ffffff"
   bordercolor="#666666"
   borderopacity="1"
   objecttolerance="10"
   gridtolerance="10"
   guidetolerance="10"
   inkscape:pageopacity="0"
   inkscape:pageshadow="2"
   inkscape:window-width="1920"
   inkscape:window-height="1055"
   id="namedview11"
   showgrid="false"
   inkscape:zoom="2.6074563"
   inkscape:cx="-2.6679625"
   inkscape:cy="30.971935"
   inkscape:window-x="1920"
   inkscape:window-y="0"
   inkscape:window-maximized="1"
   inkscape:current-layer="Layer_1" />
<rect
   y="0"
   x="0"
   height="64"
   width="64"
   style="opacity:0;fill:#ffffff"
   id="icon-m-battery_1_" />
<rect
   height="64"
   width="64"
   style="opacity:0;fill:#ffffff"
   id="icon-m-call-recording-off_1_"
   x="-31.18644"
   y="-8.1355934" /><rect
   y="5.9209433"
   x="9.803196"
   height="64"
   width="64"
   style="opacity:0;fill:#ffffff"
   id="icon-m-battery_1_-3" /><path
   inkscape:connector-curvature="0"
   id="path2-5-3"
   d="m 9.1337983,28.632891 c 0,-2.140814 1.3991497,-5.615248 4.2774647,-10.621697 2.056152,-3.576747 5.186599,-8.1609835 5.186599,-8.1609835 0,0 3.833666,5.6237245 6.576556,10.7683065 -0.735772,1.159003 -1.629335,2.609234 -2.528031,4.172497 -3.137487,5.457251 -4.59876,9.2151 -4.59876,11.82608 0,0.508316 0.03205,1.009235 0.09401,1.501012 -5.007521,-0.239697 -9.0078394,-4.402387 -9.0078377,-9.485215 z"
   style="opacity:0.6;fill:none;stroke:#ffffff;stroke-width:2;stroke-miterlimit:4;stroke-dasharray:none" /><path
   inkscape:connector-curvature="0"
   id="path4-3-8"
   d="m 21.870941,37.594531 c 0,-2.141241 1.399063,-5.616373 4.277199,-10.623826 2.056106,-3.577465 5.186274,-8.162538 5.186274,-8.162538 0,0 3.755242,5.509885 6.487607,10.601133 -0.551277,0.886905 -1.09891,1.792679 -1.590719,2.648329 -3.137291,5.458595 -4.598473,9.217114 -4.598473,11.828451 0,1.100049 0.150077,2.165516 0.429525,3.177447 -0.241846,0.01879 -0.484603,0.02935 -0.727857,0.02935 -5.218162,0 -9.463556,-4.26087 -9.463556,-9.49834 z"
   style="fill:none;stroke:#ffffff;stroke-width:2;stroke-miterlimit:4;stroke-dasharray:none" /><path
   inkscape:connector-curvature="0"
   id="path6-8-8"
   d="m 35.728688,44.653623 c 0,-2.141249 1.403189,-5.616394 4.289805,-10.623865 2.062168,-3.577477 5.201644,-8.162567 5.201644,-8.162567 0,0 3.139479,4.58509 5.201645,8.162567 2.886453,5.007471 4.289723,8.482616 4.289723,10.623865 0,5.237407 -4.257824,9.498376 -9.491451,9.498376 -5.233541,0 -9.491366,-4.260969 -9.491366,-9.498376 z"
   style="opacity:0.6;fill:none;stroke:#ffffff;stroke-width:2;stroke-miterlimit:4;stroke-dasharray:none" /><path
   style="fill:none;stroke:#ffffff;stroke-width:2;stroke-linecap:butt;stroke-linejoin:miter;stroke-miterlimit:4;stroke-dasharray:none;stroke-opacity:1"
   d="M 9.3559317,54.508474 C 19.973086,53.542872 23.372554,47.815055 23.372554,47.815055"
   id="path892"
   inkscape:connector-curvature="0"
   sodipodi:nodetypes="cc" /><path
   style="fill:none;stroke:#ffffff;stroke-width:2;stroke-linecap:butt;stroke-linejoin:miter;stroke-miterlimit:4;stroke-dasharray:none;stroke-opacity:1"
   d="M 54.339983,9.1272832 C 43.147554,9.5176125 36.643071,20.792292 36.643071,20.792292"
   id="path892-0"
   inkscape:connector-curvature="0"
   sodipodi:nodetypes="cc" /></svg>